/* XPM */
static char *_829ad5504d94be0abc011e191c05f95EYQQSXJKNRmvszIj[] = {
/* columns rows colors chars-per-pixel */
"64 64 92 1 ",
"  c None",
". c #9E646F",
"X c #A36772",
"o c #A56974",
"O c #AC6B77",
"+ c #AD6D79",
"@ c #B26F7B",
"# c #AE707B",
"$ c #B3717D",
"% c #B9747F",
"& c #7E6AAC",
"* c #7468B8",
"= c #B77480",
"- c #BC7683",
"; c #BD7984",
": c #AC739A",
"> c #B77B9B",
", c #BF7C9B",
"< c #856DA8",
"1 c #9C73A1",
"2 c #8275BE",
"3 c #C07784",
"4 c #C37986",
"5 c #C57B89",
"6 c #CB7E8C",
"7 c #C47E9D",
"8 c #8D80BF",
"9 c #9A82BA",
"0 c #9C90B5",
"q c #AC8DAC",
"w c #BD86A5",
"e c #B78FB2",
"r c #CD818E",
"t c #D1828F",
"y c #CE8290",
"u c #D38492",
"i c #D98795",
"p c #DA8997",
"a c #DD8B9A",
"s c #E08A97",
"d c #E38E9D",
"f c #E6909F",
"g c #E8919F",
"h c #D387A0",
"j c #D189A3",
"k c #DC8DA2",
"l c #CC96AE",
"z c #C29AAC",
"x c #DF92A0",
"c c #DA94A9",
"v c #E692A1",
"b c #EC93A3",
"n c #EA9BA7",
"m c #E49DA9",
"M c #EC9EAB",
"N c #F196A6",
"B c #F398A7",
"V c #F397A8",
"C c #F79AAA",
"Z c #FA9CAC",
"A c #FE9FB0",
"S c #DFAEB6",
"D c #E1A1AC",
"F c #F6A1AF",
"G c #ECA5B0",
"H c #FEA1B2",
"J c #FFA7B8",
"K c #EDB1BB",
"L c #9D91CF",
"P c #B19DC6",
"I c #AA9ED6",
"U c #AAA1D4",
"Y c #B4AED2",
"T c #B7AEDA",
"R c #BBB5D7",
"E c #BAB6D7",
"W c #B9B8D3",
"Q c #BEB3E0",
"! c #C7A9C4",
"~ c #C0BCD9",
"^ c #F0B7C0",
"/ c #DFC5CB",
"( c #CEC9D7",
") c #D9C7D0",
"_ c #E9C7CC",
"` c #E9D7DA",
"' c #E4D8DC",
"] c #CDC2E2",
"[ c #CECDE1",
"{ c #E2D8E0",
"} c #E1DEE5",
"| c #EBDCE0",
/* pixels */
"                      O-6u5O                                    ",
"                   $pbZZBs6o                                    ",
"                  rCZZZBp5                                      ",
"                 dZZZZCd5                                       ",
"                tZZCVZV6                                        ",
"                bZZCZZao                                        ",
"                ZZZZZv+                                         ",
"               dZAAZdO                                          ",
"              iZidf6                                            ",
"              Vfo                                               ",
"             pZ5                                                ",
"             Vbo                                                ",
"            uHr                   @                             ",
"            pJ-               pvCCCBva5  @6pu                   ",
"            sH$        di3@ iVZZZZCZZZZbidZZd                   ",
"            dZ         sACBCZZZZCCCCZCZCZCZNu                   ",
"            dZ         rbZZZCCCCVZCCVZCCZCCp3                   ",
"            aH         -pNCCCCCCZCCZZVZCCCZd4                   ",
"            aJy        OubZZZZZCCCZVZVZCZZZZd                   ",
"            iJa         vZCnDmCNBCCCCZVVnDMZCa                  ",
"             ZV         CZHS}0>bNZVZCCBaq(_FHb                  ",
"             fHp       rZZC'[29kNBZVCCvw2E'KZv                  ",
"             4AV       ;ZZM'~I]lBBZBZBm!TE'^Zd                  ",
"              pHv       dZF_WLQeNZBZCCcPUY)Gby                  ",
"               bHs      5CZmz<*1NCCCZCp&*qDVi                   ",
"                NHv      rbZZk:hCCCCCCb,ybVu                    ",
"                 VHb6     -ufgNZCCCZCCVgst-                     ",
"                  dZAs      %4sCCCCCCZbu$                       ",
"                   5vHZvt     5BZZZZZCf                         ",
"                     raCZCdfdr#isddgau4                         ",
"                       $rigbfdvBs6556puX                        ",
"                          .OrbCZZVbbVZbiuadday                  ",
"                           uVZCZCZCZCCZCbsafZACvy               ",
"                         rNZCCCCZVZCCCCCCZVdaabCZa              ",
"                        vZZZCBCCCVZCZVCBZZZZVdiivZv             ",
"                      ;aHZZvsCCCCZCCVZZBuibCZd;.#bHa            ",
"                     5pZZbuOiZCCCCCCZZZB4  =y5-- rFb            ",
"                     -rfu$  bZZCCZCCZBZVa    =+   bVi           ",
"                     -$;   6ZCZCCCCCBZZZd         sVa           ",
"                      o    aZZVCCCZBZCZVv4        bVy           ",
"                          -VZCZCCCZCVZCZb6        Cf            ",
"                          uZCCVZCCCCZZCCBi       aAa            ",
"                          sZCCCBBCCCZVZCga       Cv;            ",
"                          dZCZVbpCCCVZCVgs4     bb5             ",
"                          vZCCCBigCCCCZVga5   ubV4              ",
"                          BZCCCCpiCCCCVBgp$ 6fCf4               ",
"                          gZZCZBsiBZCCCbsu5dVbu$                ",
"                          tZCCBZpiBCZZNsiudbu-                  ",
"                           dZZZCi5fbdiusu54$                    ",
"                            bZVb5rr545db$                       ",
"                            6AZu @$ @dZb                        ",
"                            6ZZ     ;sZCi                       ",
"                        -uddBZB3     5sbCvr                     ",
"                     -tgZZZZBgu       3uvZCfy                   ",
"                   pvZZZZBgpt4          5pbZZBsu                ",
"                yvZZZZZVbi43             $udBZAZbi=             ",
"              yvZZZCZBvu4@                 5idBZZZVa-           ",
"             uZZCCZCgt3                      4uvVZZZCp=         ",
"            6fbCZZVs4                          5aVCZBffr        ",
"           =ababZCu$                            %ibBddavu       ",
"           ibavZCy                               @5sfussiX      ",
"          =NabZBr                                  -ififV=      ",
"          $ybZd                                     $rauy       ",
"            #+                                        X         "
};
